<?xml version="1.0" encoding="UTF-8" standalone="no"?>
<!DOCTYPE svg PUBLIC "-//W3C//DTD SVG 1.1//EN" "http://www.w3.org/Graphics/SVG/1.1/DTD/svg11.dtd">
<svg width="100%" height="100%" viewBox="0 0 3508 2481" version="1.1" xmlns="http://www.w3.org/2000/svg" xmlns:xlink="http://www.w3.org/1999/xlink" xml:space="preserve" xmlns:serif="http://www.serif.com/" style="fill-rule:evenodd;clip-rule:evenodd;stroke-linejoin:round;stroke-miterlimit:2;">



    <g id="L1_body-back-1" serif:id="L1_body back 1" transform="matrix(1,0,0,1,-4,0)">
        <g transform="matrix(7.16825,0.352239,-0.352239,7.16825,-1102.85,-1008.14)">
            <path d="M581.06,321.34C581.8,327.55 575.34,333.42 566.65,334.45C557.96,335.48 536.82,332.88 536.08,326.67C535.34,320.46 555.29,312.99 563.98,311.97C572.67,310.95 580.33,315.13 581.06,321.34Z" style="fill:rgb(61,197,238);fill-rule:nonzero;"/>
        </g>
        <g transform="matrix(10.1911,1.18763,-1.18763,10.1911,-2573.67,-2250.47)">
            <path d="M590.61,252.32C590.98,255.43 587.75,258.36 583.4,258.87C579.05,259.38 568.48,258.08 568.12,254.98C567.75,251.87 577.73,248.14 582.07,247.63C586.41,247.12 590.24,249.21 590.61,252.32Z" style="fill:rgb(61,197,238);fill-rule:nonzero;"/>
        </g>
        <g transform="matrix(7.1769,0,0,7.1769,-1210.83,-806.795)">
            <path d="M393,161.16C469.2,158.81 529.32,191.14 551.55,202.48C578.05,216.01 584.57,225.66 582.71,233.51C579.31,247.85 518.09,244.72 517.94,249.83C517.79,254.94 574.01,263.08 572.01,284.44C570.01,305.81 506.06,309.78 502.38,317.01C498.71,324.24 547.78,336.68 549.01,351.37C549.8,360.82 491.59,383.44 410.84,390.58C289.157,401.339 260.487,304.431 266.597,256.731C270.987,222.551 296.72,164.13 393,161.16Z" style="fill:rgb(61,197,238);fill-rule:nonzero;"/>
        </g>
        <g id="L1_shadow" transform="matrix(7.61972,0,0,7.61972,-1314.87,-931.584)">
            <ellipse cx="402.24" cy="426.45" rx="84.39" ry="11.62" style="fill:rgb(58,36,22);"/>
        </g>
    </g>



    <g id="L2_body-front-1" serif:id="L2_body front 1" transform="matrix(7.00065,0,0,7.00065,-1154.98,-757.74)">
        <path d="M385.08,161.37C461.28,159.02 521.4,191.35 543.63,202.69C570.13,216.22 571.552,223.111 569.692,230.971C566.292,245.311 495.1,239 494.95,244.11C494.8,249.22 559.21,264.24 557.21,285.6C555.21,306.97 489.58,307.19 485.91,314.41C482.24,321.64 532.12,341.39 530.2,350.67C528.28,359.95 481.505,386.521 400.755,393.661C290.786,399.123 257.499,309.555 263.609,261.855C267.989,227.665 288.8,164.34 385.08,161.37Z" style="fill:url(#L2__Linear1);fill-rule:nonzero;"/>
        <clipPath id="L2__clip2">
            <path d="M385.08,161.37C461.28,159.02 521.4,191.35 543.63,202.69C570.13,216.22 571.552,223.111 569.692,230.971C566.292,245.311 495.1,239 494.95,244.11C494.8,249.22 559.21,264.24 557.21,285.6C555.21,306.97 489.58,307.19 485.91,314.41C482.24,321.64 532.12,341.39 530.2,350.67C528.28,359.95 481.505,386.521 400.755,393.661C290.786,399.123 257.499,309.555 263.609,261.855C267.989,227.665 288.8,164.34 385.08,161.37Z" clip-rule="nonzero"/>
        </clipPath>
        <g clip-path="url(#L2__clip2)">
            <g id="L2_XMLID_3_" transform="matrix(0.441246,0,0,0.441246,-22.3329,-634.87)">
                <path d="M990.083,2102.45C998.468,2173.34 1112.12,2169.67 1113.1,2226.44C1114.3,2294.99 1008.58,2319.04 935.102,2327.74C790.716,2344.83 659.836,2241.65 642.748,2097.26C625.66,1952.87 728.845,1821.99 873.232,1804.91C975.873,1792.76 1126.85,1824.71 1126.85,1911.17C1126.85,1949.93 985.142,2060.7 990.083,2102.45Z" style="fill:url(#L2__Linear3);fill-rule:nonzero;"/>
            </g>
            <g transform="matrix(1,0,0,1,-0.887874,-1.35309)">
                <path d="M402.22,177.03C402.78,181.72 385.97,185.03 363.57,187.69C341.17,190.35 319.88,193.95 319.32,189.25C318.76,184.56 339.16,173.35 361.55,170.7C383.94,168.05 401.67,172.34 402.22,177.03Z" style="fill:url(#L2__Linear4);fill-rule:nonzero;"/>
            </g>
            <g transform="matrix(1,0,0,1,2.35478,-4.69714)">
                <path d="M278.14,216.195C291.923,207.398 309.996,202.07 329.77,202.07C373.029,202.07 408.15,227.571 408.15,258.98C408.15,290.389 373.029,315.89 329.77,315.89C300.038,315.89 274.15,303.844 260.87,286.115C258.986,260.706 265.491,236.447 278.14,216.195Z" style="fill:rgb(58,36,22);"/>
            </g>
        </g>
    </g>
    <defs>
        <linearGradient id="L2__Linear1" x1="0" y1="0" x2="1" y2="0" gradientUnits="userSpaceOnUse" gradientTransform="matrix(1.41048e-14,-230.349,230.349,1.41048e-14,432.186,391.596)"><stop offset="0" style="stop-color:rgb(40,170,225);stop-opacity:1"/><stop offset="0.03" style="stop-color:rgb(40,170,225);stop-opacity:1"/><stop offset="1" style="stop-color:rgb(42,59,142);stop-opacity:1"/></linearGradient>
        <linearGradient id="L2__Linear3" x1="0" y1="0" x2="1" y2="0" gradientUnits="userSpaceOnUse" gradientTransform="matrix(75.5649,-322.088,322.088,75.5649,746.007,2177.83)"><stop offset="0" style="stop-color:rgb(234,44,123);stop-opacity:1"/><stop offset="1" style="stop-color:rgb(42,59,142);stop-opacity:1"/></linearGradient>
        <linearGradient id="L2__Linear4" x1="0" y1="0" x2="1" y2="0" gradientUnits="userSpaceOnUse" gradientTransform="matrix(-2.02284,-17.0969,17.0969,-2.02284,361.363,188.076)"><stop offset="0" style="stop-color:white;stop-opacity:0"/><stop offset="1" style="stop-color:white;stop-opacity:1"/></linearGradient>
    </defs>



    <g id="L3_eyes-1" serif:id="L3_eyes 1" transform="matrix(1,0,0,1,-6,0)">
        <g transform="matrix(6.86182,0,0,6.86182,-1074.52,-751.473)">
            <path id="L3_L3_XMLID_2_" d="M365.33,250.95C365.1,265.18 357.96,276.61 349.38,276.47C340.8,276.33 334.04,264.68 334.27,250.44C334.5,236.21 341.64,224.78 350.22,224.92C358.8,225.06 365.57,236.72 365.33,250.95Z" style="fill:url(#L3__Linear1);fill-rule:nonzero;"/>
            <clipPath id="L3__clip2">
                <path id="L3_L3_L3_XMLID_2_1" serif:id="L3_L3_XMLID_2_" d="M365.33,250.95C365.1,265.18 357.96,276.61 349.38,276.47C340.8,276.33 334.04,264.68 334.27,250.44C334.5,236.21 341.64,224.78 350.22,224.92C358.8,225.06 365.57,236.72 365.33,250.95Z" clip-rule="nonzero"/>
            </clipPath>
            <g clip-path="url(#L3__clip2)">
                <ellipse cx="360.533" cy="250.495" rx="16.684" ry="26.621" style="fill:rgb(255,239,48);"/>
            </g>
        </g>
        <g transform="matrix(6.86182,0,0,6.86182,-1074.52,-751.473)">
            <path id="L3_L3_XMLID_1_" d="M295.13,252.33C294.9,266.56 289.13,278.01 282.24,277.9C275.35,277.79 269.96,266.16 270.19,251.92C270.42,237.69 276.19,226.24 283.08,226.35C289.97,226.47 295.37,238.1 295.13,252.33Z" style="fill:url(#L3__Linear3);fill-rule:nonzero;"/>
            <clipPath id="L3__clip4">
                <path id="L3_L3_L3_XMLID_1_1" serif:id="L3_L3_XMLID_1_" d="M295.13,252.33C294.9,266.56 289.13,278.01 282.24,277.9C275.35,277.79 269.96,266.16 270.19,251.92C270.42,237.69 276.19,226.24 283.08,226.35C289.97,226.47 295.37,238.1 295.13,252.33Z" clip-rule="nonzero"/>
            </clipPath>
            <g clip-path="url(#L3__clip4)">
                <g transform="matrix(1,0,0,1,-66.4092,1.47242)">
                    <ellipse cx="360.533" cy="250.495" rx="16.684" ry="26.621" style="fill:rgb(255,239,48);"/>
                </g>
            </g>
        </g>
    </g>
    <defs>
        <linearGradient id="L3__Linear1" x1="0" y1="0" x2="1" y2="0" gradientUnits="userSpaceOnUse" gradientTransform="matrix(3.15631e-15,-51.5465,51.5465,3.15631e-15,349.801,276.474)"><stop offset="0" style="stop-color:rgb(234,44,123);stop-opacity:1"/><stop offset="1" style="stop-color:rgb(143,40,140);stop-opacity:1"/></linearGradient>
        <linearGradient id="L3__Linear3" x1="0" y1="0" x2="1" y2="0" gradientUnits="userSpaceOnUse" gradientTransform="matrix(3.15626e-15,-51.5457,51.5457,3.15626e-15,282.663,277.899)"><stop offset="0" style="stop-color:rgb(234,44,123);stop-opacity:1"/><stop offset="1" style="stop-color:rgb(143,40,140);stop-opacity:1"/></linearGradient>
    </defs>



</svg>




